<svg viewBox="0 0 20 19" xmlns="http://www.w3.org/2000/svg">
<path d="M10.2752 4.59832C7.59648 4.59832 5.43578 6.75901 5.43578 9.43777C5.43578 12.1165 7.59648 14.2772 10.2752 14.2772C12.954 14.2772 15.1147 12.1165 15.1147 9.43777C15.1147 6.75901 12.954 4.59832 10.2752 4.59832ZM10.2752 12.584C8.54415 12.584 7.12896 11.1731 7.12896 9.43777C7.12896 7.70247 8.53994 6.29149 10.2752 6.29149C12.0105 6.29149 13.4215 7.70247 13.4215 9.43777C13.4215 11.1731 12.0063 12.584 10.2752 12.584ZM16.4414 4.40036C16.4414 5.02793 15.936 5.52914 15.3126 5.52914C14.6851 5.52914 14.1839 5.02372 14.1839 4.40036C14.1839 3.777 14.6893 3.27158 15.3126 3.27158C15.936 3.27158 16.4414 3.777 16.4414 4.40036ZM19.6467 5.54599C19.5751 4.03393 19.2297 2.69455 18.122 1.59104C17.0184 0.487525 15.6791 0.142151 14.167 0.0663371C12.6086 -0.0221124 7.93764 -0.0221124 6.37924 0.0663371C4.87139 0.137939 3.53201 0.483313 2.42429 1.58683C1.31656 2.69034 0.975403 4.02972 0.899589 5.54178C0.81114 7.10018 0.81114 11.7711 0.899589 13.3295C0.971191 14.8416 1.31656 16.181 2.42429 17.2845C3.53201 18.388 4.86718 18.7334 6.37924 18.8092C7.93764 18.8976 12.6086 18.8976 14.167 18.8092C15.6791 18.7376 17.0184 18.3922 18.122 17.2845C19.2255 16.181 19.5708 14.8416 19.6467 13.3295C19.7351 11.7711 19.7351 7.10439 19.6467 5.54599ZM17.6334 15.0017C17.3049 15.8272 16.6689 16.4632 15.8391 16.7959C14.5966 17.2887 11.6483 17.175 10.2752 17.175C8.90216 17.175 5.94963 17.2845 4.71134 16.7959C3.88581 16.4674 3.24982 15.8314 2.91708 15.0017C2.42429 13.7592 2.53801 10.8108 2.53801 9.43777C2.53801 8.0647 2.4285 5.11217 2.91708 3.87388C3.24561 3.04835 3.8816 2.41235 4.71134 2.07962C5.95384 1.58683 8.90216 1.70055 10.2752 1.70055C11.6483 1.70055 14.6008 1.59104 15.8391 2.07962C16.6646 2.40814 17.3006 3.04414 17.6334 3.87388C18.1262 5.11638 18.0125 8.0647 18.0125 9.43777C18.0125 10.8108 18.1262 13.7634 17.6334 15.0017Z"/>
</svg>
