<svg viewBox="0 0 20 15" xmlns="http://www.w3.org/2000/svg">
<path d="M19.5825 2.5244C19.3537 1.66034 18.682 0.98221 17.8287 0.752523C16.2818 0.333252 10.0834 0.333252 10.0834 0.333252C10.0834 0.333252 3.88141 0.333252 2.33454 0.752523C1.48122 0.98221 0.809461 1.66034 0.580699 2.5244C0.166748 4.08481 0.166748 7.34783 0.166748 7.34783C0.166748 7.34783 0.166748 10.6072 0.580699 12.1713C0.809461 13.0317 1.48122 13.6843 2.33454 13.914C3.88141 14.3333 10.0834 14.3333 10.0834 14.3333C10.0834 14.3333 16.2854 14.3333 17.8323 13.914C18.6856 13.6843 19.3574 13.0317 19.5861 12.1713C20.0001 10.6072 20.0001 7.34783 20.0001 7.34783C20.0001 7.34783 19.9965 4.08481 19.5825 2.5244ZM8.0536 10.3083V4.38742L13.2389 7.34783L8.0536 10.3083Z"/>
</svg>
