<svg viewBox="0 0 19 19" xmlns="http://www.w3.org/2000/svg">
<path d="M4.22546 18.8734H0.311749V6.27289H4.22546V18.8734ZM2.2665 4.55406C1.01529 4.55406 0 3.5177 0 2.2665C0 1.01529 1.01529 0 2.2665 0C3.5177 0 4.53299 1.01529 4.53299 2.2665C4.53299 3.5177 3.5177 4.55406 2.2665 4.55406ZM18.8692 18.8734H14.9639V12.7396C14.9639 11.2777 14.9344 9.40301 12.9291 9.40301C10.8943 9.40301 10.5826 10.9912 10.5826 12.6342V18.8734H6.6731V6.27289H10.4267V7.99172H10.4815C11.0039 7.0017 12.2804 5.95693 14.1846 5.95693C18.1446 5.95693 18.8734 8.56466 18.8734 11.9518V18.8734H18.8692Z"/>
</svg>
